HIERARCHY
ROOT Hips
{{
    OFFSET 0.00 88.00 0.00
    CHANNELS 6 Xposition Yposition Zposition Zrotation Xrotation Yrotation
    JOINT UpperLeg_L
    {{
        OFFSET -20.00 -33.40 0.00
        CHANNELS 3 Zrotation Xrotation Yrotation
        JOINT LowerLeg_L
        {{
            OFFSET -4.00 -52.00 0.00
            CHANNELS 3 Zrotation Xrotation Yrotation
            JOINT Foot_L
            {{
                OFFSET -1.00 -38.00 0.00
                CHANNELS 3 Zrotation Xrotation Yrotation
                End Site
                {{
                    OFFSET 0.00 -15.00 0.00
                }}
            }}
        }}
    }}
    JOINT UpperLeg_R
    {{
        OFFSET 20.70 -33.40 0.00
        CHANNELS 3 Zrotation Xrotation Yrotation
        JOINT LowerLeg_R
        {{
            OFFSET 3.00 -52.00 0.00
            CHANNELS 3 Zrotation Xrotation Yrotation
            JOINT Foot_R
            {{
                OFFSET 1.00 -38.00 0.00
                CHANNELS 3 Zrotation Xrotation Yrotation
                End Site
                {{
                    OFFSET 0.00 -15.00 0.00
                }}
            }}
        }}
    }}
    JOINT Chest
    {{
        OFFSET 0.00 18.70 0.00
        CHANNELS 3 Zrotation Xrotation Yrotation
        JOINT UpperArm_L
        {{
            OFFSET -53.10 0.00 0.00
            CHANNELS 3 Zrotation Xrotation Yrotation
            JOINT LowerArm_L
            {{
                OFFSET 8.00 -33.60 0.00
                CHANNELS 3 Zrotation Xrotation Yrotation
                JOINT Hand_L
                {{
                    OFFSET -2.20 -37.00 0.00
                    CHANNELS 3 Zrotation Xrotation Yrotation
                    End Site
                    {{
                        OFFSET 0.00 -12.00 0.00
                    }}
                }}
            }}
        }}
        JOINT UpperArm_R
        {{
            OFFSET 49.00 0.00 0.00
            CHANNELS 3 Zrotation Xrotation Yrotation
            JOINT LowerArm_R
            {{
                OFFSET -4.80 -34.20 0.00
                CHANNELS 3 Zrotation Xrotation Yrotation
                JOINT Hand_R
                {{
                    OFFSET 2.50 -32.50 0.00
                    CHANNELS 3 Zrotation Xrotation Yrotation
                    End Site
                    {{
                        OFFSET 0.00 -12.00 0.00
                    }}
                }}
            }}
        }}
    }}
}}

MOTION
Frames: 33
Frame Time: 0.041667
0.000 88.0109 0.000 0.0793 0.000 0.000 0.000 0.4626 0.000 0.000 0.0000 0.000 0.000 -0.0000 0.000 0.000 -0.4626 0.000 0.000 0.3965 0.000 0.000 -0.1983 0.000 0.0793 0.000 0.000 0.000 -9.2069 0.000 0.000 -19.5202 0.000 0.000 -8.6757 0.000 0.000 -10.7931 0.000 0.000 -34.4798 0.000 0.000 -15.3243 0.000
0.000 88.0971 0.000 0.2365 0.000 0.000 0.000 1.3798 0.000 0.000 0.0000 0.000 0.000 -0.0000 0.000 0.000 -1.3798 0.000 0.000 1.1827 0.000 0.000 -0.5914 0.000 0.2365 0.000 0.000 0.000 -7.6346 0.000 0.000 -20.2457 0.000 0.000 -8.9981 0.000 0.000 -12.3654 0.000 0.000 -33.7543 0.000 0.000 -15.0019 0.000
0.000 88.2636 0.000 0.3896 0.000 0.000 0.000 2.2729 0.000 0.000 0.0000 0.000 0.000 -0.0000 0.000 0.000 -2.2729 0.000 0.000 1.9482 0.000 0.000 -0.9741 0.000 0.3896 0.000 0.000 0.000 -6.1036 0.000 0.000 -21.0892 0.000 0.000 -9.3730 0.000 0.000 -13.8964 0.000 0.000 -32.9108 0.000 0.000 -14.6270 0.000
0.000 88.4986 0.000 0.5359 0.000 0.000 0.000 3.1263 0.000 0.000 0.0000 0.000 0.000 -0.0000 0.000 0.000 -3.1263 0.000 0.000 2.6797 0.000 0.000 -1.3398 0.000 0.5359 0.000 0.000 0.000 -4.6407 0.000 0.000 -22.0360 0.000 0.000 -9.7938 0.000 0.000 -15.3593 0.000 0.000 -31.9640 0.000 0.000 -14.2062 0.000
0.000 88.7860 0.000 0.6729 0.000 0.000 0.000 3.9250 0.000 0.000 0.0000 0.000 0.000 -0.0000 0.000 0.000 -3.9250 0.000 0.000 3.3643 0.000 0.000 -1.6821 0.000 0.6729 0.000 0.000 0.000 -3.2714 0.000 0.000 -23.0695 0.000 0.000 -10.2531 0.000 0.000 -16.7286 0.000 0.000 -30.9305 0.000 0.000 -13.7469 0.000
0.000 89.1056 0.000 0.7980 0.000 0.000 0.000 4.6552 0.000 0.000 0.0000 0.000 0.000 -0.0000 0.000 0.000 -4.6552 0.000 0.000 3.9901 0.000 0.000 -1.9951 0.000 0.7980 0.000 0.000 0.000 -2.0197 0.000 0.000 -24.1717 0.000 0.000 -10.7430 0.000 0.000 -17.9803 0.000 0.000 -29.8283 0.000 0.000 -13.2570 0.000
0.000 89.4353 0.000 0.9093 0.000 0.000 0.000 5.3040 0.000 0.000 0.0000 0.000 0.000 -0.0000 0.000 0.000 -5.3040 0.000 0.000 4.5463 0.000 0.000 -2.2731 0.000 0.9093 0.000 0.000 0.000 -0.9074 0.000 0.000 -25.3233 0.000 0.000 -11.2548 0.000 0.000 -19.0926 0.000 0.000 -28.6767 0.000 0.000 -12.7452 0.000
0.000 89.7521 0.000 1.0046 0.000 0.000 0.000 5.8602 0.000 0.000 0.0000 0.000 0.000 -0.0000 0.000 0.000 -5.8602 0.000 0.000 5.0230 0.000 0.000 -2.5115 0.000 1.0046 0.000 0.000 0.000 0.0460 0.000 0.000 -26.5042 0.000 0.000 -11.7796 0.000 0.000 -20.0460 0.000 0.000 -27.4958 0.000 0.000 -12.2204 0.000
0.000 90.0340 0.000 1.0824 0.000 0.000 0.000 6.3139 0.000 0.000 0.0000 0.000 0.000 -0.0000 0.000 0.000 -6.3139 0.000 0.000 5.4119 0.000 0.000 -2.7060 0.000 1.0824 0.000 0.000 0.000 0.8239 0.000 0.000 -27.6938 0.000 0.000 -12.3083 0.000 0.000 -20.8239 0.000 0.000 -26.3062 0.000 0.000 -11.6917 0.000
0.000 90.2613 0.000 1.1413 0.000 0.000 0.000 6.6574 0.000 0.000 0.0000 0.000 0.000 -0.0000 0.000 0.000 -6.6574 0.000 0.000 5.7063 0.000 0.000 -2.8532 0.000 1.1413 0.000 0.000 0.000 1.4127 0.000 0.000 -28.8712 0.000 0.000 -12.8316 0.000 0.000 -21.4127 0.000 0.000 -25.1288 0.000 0.000 -11.1684 0.000
0.000 90.4182 0.000 1.1802 0.000 0.000 0.000 6.8845 0.000 0.000 0.0000 0.000 0.000 -0.0000 0.000 0.000 -6.8845 0.000 0.000 5.9010 0.000 0.000 -2.9505 0.000 1.1802 0.000 0.000 0.000 1.8021 0.000 0.000 -30.0159 0.000 0.000 -13.3404 0.000 0.000 -21.8021 0.000 0.000 -23.9841 0.000 0.000 -10.6596 0.000
0.000 90.4939 0.000 1.1985 0.000 0.000 0.000 6.9914 0.000 0.000 0.0000 0.000 0.000 -0.0000 0.000 0.000 -6.9914 0.000 0.000 5.9926 0.000 0.000 -2.9963 0.000 1.1985 0.000 0.000 0.000 1.9852 0.000 0.000 -31.1080 0.000 0.000 -13.8258 0.000 0.000 -21.9852 0.000 0.000 -22.8920 0.000 0.000 -10.1742 0.000
0.000 90.4830 0.000 1.1959 0.000 0.000 0.000 6.9761 0.000 0.000 0.0000 0.000 0.000 -0.0000 0.000 0.000 -6.9761 0.000 0.000 5.9795 0.000 0.000 -2.9898 0.000 1.1959 0.000 0.000 0.000 1.9590 0.000 0.000 -32.1283 0.000 0.000 -14.2792 0.000 0.000 -21.9590 0.000 0.000 -21.8717 0.000 0.000 -9.7208 0.000
0.000 90.3863 0.000 1.1724 0.000 0.000 0.000 6.8389 0.000 0.000 0.0000 0.000 0.000 -0.0000 0.000 0.000 -6.8389 0.000 0.000 5.8619 0.000 0.000 -2.9310 0.000 1.1724 0.000 0.000 0.000 1.7238 0.000 0.000 -33.0589 0.000 0.000 -14.6929 0.000 0.000 -21.7238 0.000 0.000 -20.9411 0.000 0.000 -9.3071 0.000
0.000 90.2105 0.000 1.1284 0.000 0.000 0.000 6.5822 0.000 0.000 0.0000 0.000 0.000 -0.0000 0.000 0.000 -6.5822 0.000 0.000 5.6419 0.000 0.000 -2.8210 0.000 1.1284 0.000 0.000 0.000 1.2838 0.000 0.000 -33.8838 0.000 0.000 -15.0594 0.000 0.000 -21.2838 0.000 0.000 -20.1162 0.000 0.000 -8.9406 0.000
0.000 89.9679 0.000 1.0647 0.000 0.000 0.000 6.2106 0.000 0.000 0.0000 0.000 0.000 -0.0000 0.000 0.000 -6.2106 0.000 0.000 5.3233 0.000 0.000 -2.6617 0.000 1.0647 0.000 0.000 0.000 0.6467 0.000 0.000 -34.5883 0.000 0.000 -15.3726 0.000 0.000 -20.6467 0.000 0.000 -19.4117 0.000 0.000 -8.6274 0.000
0.000 89.6754 0.000 0.9823 0.000 0.000 0.000 5.7304 0.000 0.000 0.0000 0.000 0.000 -0.0000 0.000 0.000 -5.7304 0.000 0.000 4.9117 0.000 0.000 -2.4559 0.000 0.9823 0.000 0.000 0.000 -0.1765 0.000 0.000 -35.1603 0.000 0.000 -15.6268 0.000 0.000 -19.8235 0.000 0.000 -18.8397 0.000 0.000 -8.3732 0.000
0.000 89.3532 0.000 0.8829 0.000 0.000 0.000 5.1501 0.000 0.000 0.0000 0.000 0.000 -0.0000 0.000 0.000 -5.1501 0.000 0.000 4.4143 0.000 0.000 -2.2072 0.000 0.8829 0.000 0.000 0.000 -1.1713 0.000 0.000 -35.5896 0.000 0.000 -15.8176 0.000 0.000 -18.8287 0.000 0.000 -18.4104 0.000 0.000 -8.1824 0.000
0.000 89.0239 0.000 0.7680 0.000 0.000 0.000 4.4798 0.000 0.000 0.0000 0.000 0.000 -0.0000 0.000 0.000 -4.4798 0.000 0.000 3.8398 0.000 0.000 -1.9199 0.000 0.7680 0.000 0.000 0.000 -2.3204 0.000 0.000 -35.8690 0.000 0.000 -15.9418 0.000 0.000 -17.6796 0.000 0.000 -18.1310 0.000 0.000 -8.0582 0.000
0.000 88.7103 0.000 0.6396 0.000 0.000 0.000 3.7312 0.000 0.000 0.0000 0.000 0.000 -0.0000 0.000 0.000 -3.7312 0.000 0.000 3.1982 0.000 0.000 -1.5991 0.000 0.6396 0.000 0.000 0.000 -3.6036 0.000 0.000 -35.9933 0.000 0.000 -15.9970 0.000 0.000 -16.3964 0.000 0.000 -18.0067 0.000 0.000 -8.0030 0.000
0.000 88.4343 0.000 0.5001 0.000 0.000 0.000 2.9175 0.000 0.000 0.0000 0.000 0.000 -0.0000 0.000 0.000 -2.9175 0.000 0.000 2.5007 0.000 0.000 -1.2503 0.000 0.5001 0.000 0.000 0.000 -4.9986 0.000 0.000 -35.9605 0.000 0.000 -15.9825 0.000 0.000 -15.0014 0.000 0.000 -18.0395 0.000 0.000 -8.0175 0.000
0.000 88.2150 0.000 0.3519 0.000 0.000 0.000 2.0528 0.000 0.000 0.0000 0.000 0.000 -0.0000 0.000 0.000 -2.0528 0.000 0.000 1.7595 0.000 0.000 -0.8798 0.000 0.3519 0.000 0.000 0.000 -6.4810 0.000 0.000 -35.7712 0.000 0.000 -15.8983 0.000 0.000 -13.5190 0.000 0.000 -18.2288 0.000 0.000 -8.1017 0.000
0.000 88.0677 0.000 0.1975 0.000 0.000 0.000 1.1522 0.000 0.000 0.0000 0.000 0.000 -0.0000 0.000 0.000 -1.1522 0.000 0.000 0.9876 0.000 0.000 -0.4938 0.000 0.1975 0.000 0.000 0.000 -8.0249 0.000 0.000 -35.4286 0.000 0.000 -15.7460 0.000 0.000 -11.9751 0.000 0.000 -18.5714 0.000 0.000 -8.2540 0.000
0.000 88.0027 0.000 0.0397 0.000 0.000 0.000 0.2314 0.000 0.000 0.0000 0.000 0.000 -0.0000 0.000 0.000 -0.2314 0.000 0.000 0.1984 0.000 0.000 -0.0992 0.000 0.0397 0.000 0.000 0.000 -9.6032 0.000 0.000 -34.9388 0.000 0.000 -15.5283 0.000 0.000 -10.3968 0.000 0.000 -19.0612 0.000 0.000 -8.4717 0.000
0.000 88.0245 0.000 -0.1189 0.000 0.000 0.000 -0.6933 0.000 0.000 0.5943 0.000 0.000 -0.2971 0.000 0.000 0.6933 0.000 0.000 0.0000 0.000 0.000 -0.0000 0.000 -0.1189 0.000 0.000 0.000 -11.1885 0.000 0.000 -34.3102 0.000 0.000 -15.2490 0.000 0.000 -8.8115 0.000 0.000 -19.6898 0.000 0.000 -8.7510 0.000
0.000 88.1316 0.000 -0.2753 0.000 0.000 0.000 -1.6060 0.000 0.000 1.3765 0.000 0.000 -0.6883 0.000 0.000 1.6060 0.000 0.000 0.0000 0.000 0.000 -0.0000 0.000 -0.2753 0.000 0.000 0.000 -12.7531 0.000 0.000 -33.5539 0.000 0.000 -14.9129 0.000 0.000 -7.2469 0.000 0.000 -20.4461 0.000 0.000 -9.0871 0.000
0.000 88.3165 0.000 -0.4270 0.000 0.000 0.000 -2.4906 0.000 0.000 2.1348 0.000 0.000 -1.0674 0.000 0.000 2.4906 0.000 0.000 0.0000 0.000 0.000 -0.0000 0.000 -0.4270 0.000 0.000 0.000 -14.2695 0.000 0.000 -32.6831 0.000 0.000 -14.5258 0.000 0.000 -5.7305 0.000 0.000 -21.3169 0.000 0.000 -9.4742 0.000
0.000 88.5663 0.000 -0.5711 0.000 0.000 0.000 -3.3316 0.000 0.000 2.8557 0.000 0.000 -1.4278 0.000 0.000 3.3316 0.000 0.000 0.0000 0.000 0.000 -0.0000 0.000 -0.5711 0.000 0.000 0.000 -15.7114 0.000 0.000 -31.7131 0.000 0.000 -14.0947 0.000 0.000 -4.2886 0.000 0.000 -22.2869 0.000 0.000 -9.9053 0.000
0.000 88.8637 0.000 -0.7053 0.000 0.000 0.000 -4.1145 0.000 0.000 3.5267 0.000 0.000 -1.7634 0.000 0.000 4.1145 0.000 0.000 0.0000 0.000 0.000 -0.0000 0.000 -0.7053 0.000 0.000 0.000 -17.0534 0.000 0.000 -30.6606 0.000 0.000 -13.6269 0.000 0.000 -2.9466 0.000 0.000 -23.3394 0.000 0.000 -10.3731 0.000
0.000 89.1880 0.000 -0.8272 0.000 0.000 0.000 -4.8255 0.000 0.000 4.1361 0.000 0.000 -2.0681 0.000 0.000 4.8255 0.000 0.000 0.0000 0.000 0.000 -0.0000 0.000 -0.8272 0.000 0.000 0.000 -18.2722 0.000 0.000 -29.5442 0.000 0.000 -13.1308 0.000 0.000 -1.7278 0.000 0.000 -24.4558 0.000 0.000 -10.8692 0.000
0.000 89.5166 0.000 -0.9347 0.000 0.000 0.000 -5.4521 0.000 0.000 4.6733 0.000 0.000 -2.3366 0.000 0.000 5.4521 0.000 0.000 0.0000 0.000 0.000 -0.0000 0.000 -0.9347 0.000 0.000 0.000 -19.3465 0.000 0.000 -28.3834 0.000 0.000 -12.6148 0.000 0.000 -0.6535 0.000 0.000 -25.6166 0.000 0.000 -11.3852 0.000
0.000 89.8267 0.000 -1.0258 0.000 0.000 0.000 -5.9835 0.000 0.000 5.1288 0.000 0.000 -2.5644 0.000 0.000 5.9835 0.000 0.000 0.0000 0.000 0.000 -0.0000 0.000 -1.0258 0.000 0.000 0.000 -20.2575 0.000 0.000 -27.1984 0.000 0.000 -12.0882 0.000 0.000 0.2575 0.000 0.000 -26.8016 0.000 0.000 -11.9118 0.000
0.000 90.0966 0.000 -1.0989 0.000 0.000 0.000 -6.4104 0.000 0.000 5.4946 0.000 0.000 -2.7473 0.000 0.000 6.4104 0.000 0.000 0.0000 0.000 0.000 -0.0000 0.000 -1.0989 0.000 0.000 0.000 -20.9893 0.000 0.000 -26.0099 0.000 0.000 -11.5600 0.000 0.000 0.9893 0.000 0.000 -27.9901 0.000 0.000 -12.4400 0.000
